<svg xmlns="http://www.w3.org/2000/svg" viewBox="0 0 260 150" width="260" height="150" role="img" aria-label="Key plan, residence F5" xmlns:c2pa="http://c2pa.org/manifest"><metadata><c2pa:manifest>AAAWgmp1bWIAAAAeanVtZGMycGEAEQAQgAAAqgA4m3EDYzJwYQAAABZcanVtYgAAAEdqdW1kYzJtYQARABCAAACqADibcQN1cm46YzJwYToyMTMxODAyMC01NzJmLTQ4NjUtYmI0Yy1mYTA1NmU0M2YxMWEAAAADl2p1bWIAAAApanVtZGMyYXMAEQAQgAAAqgA4m3EDYzJwYS5hc3NlcnRpb25zAAAAALxqdW1iAAAARGp1bWRjYm9yABEAEIAAAKoAOJtxE2MycGEuaW5ncmVkaWVudC52MwAAAAAYYzJzaD9fI85TJuhRNm6Y31Qe2pYAAABwY2JvcqNpZGM6Zm9ybWF0bWltYWdlL3N2Zyt4bWxqaW5zdGFuY2VJRHgseG1wOmlpZDo2YjNiMTNjMC1iYzY4LTRmODQtYjFjMy01MGNjYTFmZmNiMGJscmVsYXRpb25zaGlwaHBhcmVudE9mAAAB4mp1bWIAAABBanVtZGNib3IAEQAQgAAAqgA4m3ETYzJwYS5hY3Rpb25zLnYyAAAAABhjMnNoXPx3iiMOyU+StLgUOlXMoQAAAZljYm9yomdhY3Rpb25zgqJmYWN0aW9ua2MycGEub3BlbmVkanBhcmFtZXRlcnOha2luZ3JlZGllbnRzgaJjdXJseC1zZWxmI2p1bWJmPWMycGEuYXNzZXJ0aW9ucy9jMnBhLmluZ3JlZGllbnQudjNkaGFzaFggYdzBQ+fJvTG7UjDXWwCprb+zIfCaDhCF/yMechnPNtGkZmFjdGlvbngdY29tLmFudGhyb3BpYy5jbGF1ZGUucHJvdmlkZWRqcGFyYW1ldGVyc6F4H2NvbS5hbnRocm9waWMub3JpZ2luLWNvbmZpZGVuY2VndW5rbm93bmtkZXNjcmlwdGlvbnhmQ2xhdWRlIHByb3ZpZGVkIHRoaXMgZmlsZSBhdCB0aGUgcmVxdWVzdCBvZiBhIHVzZXIgYW5kIG1heSBoYXZlIGNyZWF0ZWQgb3IgbW9kaWZpZWQgdGhlIGZpbGUgY29udGVudHMubXNvZnR3YXJlQWdlbnShZG5hbWVmQ2xhdWRlcmFsbEFjdGlvbnNJbmNsdWRlZPUAAADIanVtYgAAAEBqdW1kY2JvcgARABCAAACqADibcRNjMnBhLmhhc2guZGF0YQAAAAAYYzJzaFAAIVGsb4hF5CRi97Df2+YAAACAY2JvcqVjYWxnZnNoYTI1NmNwYWRNAAAAAAAAAAAAAAAAAGRoYXNoWCBzJhFh6QdYYShRwFQdPBNU4RqEr17DLdHNAk5JhlPr12RuYW1lbmp1bWJmIG1hbmlmZXN0amV4Y2x1c2lvbnOBomVzdGFydBjFZmxlbmd0aBkeBAAAAj5qdW1iAAAAJ2p1bWRjMmNsABEAEIAAAKoAOJtxA2MycGEuY2xhaW0udjIAAAACD2Nib3KlY2FsZ2ZzaGEyNTZpc2lnbmF0dXJleE1zZWxmI2p1bWJmPS9jMnBhL3VybjpjMnBhOjIxMzE4MDIwLTU3MmYtNDg2NS1iYjRjLWZhMDU2ZTQzZjExYS9jMnBhLnNpZ25hdHVyZWppbnN0YW5jZUlEeCx4bXA6aWlkOjA2YjdkMzczLWNiYWYtNDE3YS1iYmMwLTM0Njg1NTgwNDA5NnJjcmVhdGVkX2Fzc2VydGlvbnODomN1cmx4LXNlbGYjanVtYmY9YzJwYS5hc3NlcnRpb25zL2MycGEuaW5ncmVkaWVudC52M2RoYXNoWCBh3MFD58m9MbtSMNdbAKmtv7Mh8JoOEIX/Ix5yGc820aJjdXJseCpzZWxmI2p1bWJmPWMycGEuYXNzZXJ0aW9ucy9jMnBhLmFjdGlvbnMudjJkaGFzaFggJedRM7mGBmi/aXQTjByyvYyobyDrefm3RkcUkl6ykzGiY3VybHgpc2VsZiNqdW1iZj1jMnBhLmFzc2VydGlvbnMvYzJwYS5oYXNoLmRhdGFkaGFzaFggB5cgmrF1mrTQFi/ShUtF4pKiQidE+QrbdEEuaAeB5dB0Y2xhaW1fZ2VuZXJhdG9yX2luZm+jZG5hbWVvQW50aHJvcGljIEZpbGVzZ3ZlcnNpb25lMS4wLjBrc3BlY1ZlcnNpb25lMi40LjAAABA4anVtYgAAAChqdW1kYzJjcwARABCAAACqADibcQNjMnBhLnNpZ25hdHVyZQAAABAIY2JvctKEWQISogEmGCFZAgowggIGMIIBjaADAgECAhRA5aAK7sI50L64g/oGQgU9Z1UTADAKBggqhkjOPQQDAzBJMRcwFQYDVQQKEw5BbnRocm9waWMsIFBCQzEuMCwGA1UEAxMlQW50aHJvcGljIENvbnRlbnQgQ3JlZGVudGlhbHMgUm9vdCBDQTAeFw0yNjA4MDcxODQzNTZaFw0yODA4MDYxOTQzNTZaMEQxFzAVBgNVBAoTDkFudGhyb3BpYywgUEJDMSkwJwYDVQQDEyBBbnRocm9waWMgQ2xhdWRlIENvbnRlbnQgU2lnbmluZzBZMBMGByqGSM49AgEGCCqGSM49AwEHA0IABJh6CmvLUBgFFNU0vUKlOVtE6djd17L5SuwX0LemFisBM3dkd/3cyjxFA3Qo5S46fX0/ihY0VZ7mfb9KF703t5OjWDBWMA4GA1UdDwEB/wQEAwIHgDAVBgNVHSUEDjAMBgorBgEEAYPoXgIBMAwGA1UdEwEB/wQCMAAwHwYDVR0jBBgwFoAUzlHiBIFOZFsj+OPEz5o+nMHXXMIwCgYIKoZIzj0EAwMDZwAwZAIwMXMdFJ4BetLLVY7ORuE9noqbbAZOZn/aArXyTwFAZfKrPzxF2vPoJNf1+UCdg1XGAjBwX1zd9WGqYkqmL5SFqw1QySjr1zJfpJM9+1rdDwSPLMOPOjKuiXjoU/pUUeG9RwmhY3BhZFkNngAAAAAAAAAAAAAAAAAAAAAAAAAAAAAAAAAAAAAAAAAAAAAAAAAAAAAAAAAAAAAAAAAAAAAAAAAAAAAAAAAAAAAAAAAAAAAAAAAAAAAAAAAAAAAAAAAAAAAAAAAAAAAAAAAAAAAAAAAAAAAAAAAAAAAAAAAAAAAAAAAAAAAAAAAAAAAAAAAAAAAAAAAAAAAAAAAAAAAAAAAAAAAAAAAAAAAAAAAAAAAAAAAAAAAAAAAAAAAAAAAAAAAAAAAAAAAAAAAAAAAAAAAAAAAAAAAAAAAAAAAAAAAAAAAAAAAAAAAAAAAAAAAAAAAAAAAAAAAAAAAAAAAAAAAAAAAAAAAAAAAAAAAAAAAAAAAAAAAAAAAAAAAAAAAAAAAAAAAAAAAAAAAAAAAAAAAAAAAAAAAAAAAAAAAAAAAAAAAAAAAAAAAAAAAAAAAAAAAAAAAAAAAAAAAAAAAAAAAAAAAAAAAAAAAAAAAAAAAAAAAAAAAAAAAAAAAAAAAAAAAAAAAAAAAAAAAAAAAAAAAAAAAAAAAAAAAAAAAAAAAAAAAAAAAAAAAAAAAAAAAAAAAAAAAAAAAAAAAAAAAAAAAAAAAAAAAAAAAAAAAAAAAAAAAAAAAAAAAAAAAAAAAAAAAAAAAAAAAAAAAAAAAAAAAAAAAAAAAAAAAAAAAAAAAAAAAAAAAAAAAAAAAAAAAAAAAAAAAAAAAAAAAAAAAAAAAAAAAAAAAAAAAAAAAAAAAAAAAAAAAAAAAAAAAAAAAAAAAAAAAAAAAAAAAAAAAAAAAAAAAAAAAAAAAAAAAAAAAAAAAAAAAAAAAAAAAAAAAAAAAAAAAAAAAAAAAAAAAAAAAAAAAAAAAAAAAAAAAAAAAAAAAAAAAAAAAAAAAAAAAAAAAAAAAAAAAAAAAAAAAAAAAAAAAAAAAAAAAAAAAAAAAAAAAAAAAAAAAAAAAAAAAAAAAAAAAAAAAAAAAAAAAAAAAAAAAAAAAAAAAAAAAAAAAAAAAAAAAAAAAAAAAAAAAAAAAAAAAAAAAAAAAAAAAAAAAAAAAAAAAAAAAAAAAAAAAAAAAAAAAAAAAAAAAAAAAAAAAAAAAAAAAAAAAAAAAAAAAAAAAAAAAAAAAAAAAAAAAAAAAAAAAAAAAAAAAAAAAAAAAAAAAAAAAAAAAAAAAAAAAAAAAAAAAAAAAAAAAAAAAAAAAAAAAAAAAAAAAAAAAAAAAAAAAAAAAAAAAAAAAAAAAAAAAAAAAAAAAAAAAAAAAAAAAAAAAAAAAAAAAAAAAAAAAAAAAAAAAAAAAAAAAAAAAAAAAAAAAAAAAAAAAAAAAAAAAAAAAAAAAAAAAAAAAAAAAAAAAAAAAAAAAAAAAAAAAAAAAAAAAAAAAAAAAAAAAAAAAAAAAAAAAAAAAAAAAAAAAAAAAAAAAAAAAAAAAAAAAAAAAAAAAAAAAAAAAAAAAAAAAAAAAAAAAAAAAAAAAAAAAAAAAAAAAAAAAAAAAAAAAAAAAAAAAAAAAAAAAAAAAAAAAAAAAAAAAAAAAAAAAAAAAAAAAAAAAAAAAAAAAAAAAAAAAAAAAAAAAAAAAAAAAAAAAAAAAAAAAAAAAAAAAAAAAAAAAAAAAAAAAAAAAAAAAAAAAAAAAAAAAAAAAAAAAAAAAAAAAAAAAAAAAAAAAAAAAAAAAAAAAAAAAAAAAAAAAAAAAAAAAAAAAAAAAAAAAAAAAAAAAAAAAAAAAAAAAAAAAAAAAAAAAAAAAAAAAAAAAAAAAAAAAAAAAAAAAAAAAAAAAAAAAAAAAAAAAAAAAAAAAAAAAAAAAAAAAAAAAAAAAAAAAAAAAAAAAAAAAAAAAAAAAAAAAAAAAAAAAAAAAAAAAAAAAAAAAAAAAAAAAAAAAAAAAAAAAAAAAAAAAAAAAAAAAAAAAAAAAAAAAAAAAAAAAAAAAAAAAAAAAAAAAAAAAAAAAAAAAAAAAAAAAAAAAAAAAAAAAAAAAAAAAAAAAAAAAAAAAAAAAAAAAAAAAAAAAAAAAAAAAAAAAAAAAAAAAAAAAAAAAAAAAAAAAAAAAAAAAAAAAAAAAAAAAAAAAAAAAAAAAAAAAAAAAAAAAAAAAAAAAAAAAAAAAAAAAAAAAAAAAAAAAAAAAAAAAAAAAAAAAAAAAAAAAAAAAAAAAAAAAAAAAAAAAAAAAAAAAAAAAAAAAAAAAAAAAAAAAAAAAAAAAAAAAAAAAAAAAAAAAAAAAAAAAAAAAAAAAAAAAAAAAAAAAAAAAAAAAAAAAAAAAAAAAAAAAAAAAAAAAAAAAAAAAAAAAAAAAAAAAAAAAAAAAAAAAAAAAAAAAAAAAAAAAAAAAAAAAAAAAAAAAAAAAAAAAAAAAAAAAAAAAAAAAAAAAAAAAAAAAAAAAAAAAAAAAAAAAAAAAAAAAAAAAAAAAAAAAAAAAAAAAAAAAAAAAAAAAAAAAAAAAAAAAAAAAAAAAAAAAAAAAAAAAAAAAAAAAAAAAAAAAAAAAAAAAAAAAAAAAAAAAAAAAAAAAAAAAAAAAAAAAAAAAAAAAAAAAAAAAAAAAAAAAAAAAAAAAAAAAAAAAAAAAAAAAAAAAAAAAAAAAAAAAAAAAAAAAAAAAAAAAAAAAAAAAAAAAAAAAAAAAAAAAAAAAAAAAAAAAAAAAAAAAAAAAAAAAAAAAAAAAAAAAAAAAAAAAAAAAAAAAAAAAAAAAAAAAAAAAAAAAAAAAAAAAAAAAAAAAAAAAAAAAAAAAAAAAAAAAAAAAAAAAAAAAAAAAAAAAAAAAAAAAAAAAAAAAAAAAAAAAAAAAAAAAAAAAAAAAAAAAAAAAAAAAAAAAAAAAAAAAAAAAAAAAAAAAAAAAAAAAAAAAAAAAAAAAAAAAAAAAAAAAAAAAAAAAAAAAAAAAAAAAAAAAAAAAAAAAAAAAAAAAAAAAAAAAAAAAAAAAAAAAAAAAAAAAAAAAAAAAAAAAAAAAAAAAAAAAAAAAAAAAAAAAAAAAAAAAAAAAAAAAAAAAAAAAAAAAAAAAAAAAAAAAAAAAAAAAAAAAAAAAAAAAAAAAAAAAAAAAAAAAAAAAAAAAAAAAAAAAAAAAAAAAAAAAAAAAAAAAAAAAAAAAAAAAAAAAAAAAAAAAAAAAAAAAAAAAAAAAAAAAAAAAAAAAAAAAAAAAAAAAAAAAAAAAAAAAAAAAAAAAAAAAAAAAAAAAAAAAAAAAAAAAAAAAAAAAAAAAAAAAAAAAAAAAAAAAAAAAAAAAAAAAAAAAAAAAAAAAAAAAAAAAAAAAAAAAAAAAAAAAAAAAAAAAAAAAAAAAAAAAAAAAAAAAAAAAAAAAAAAAAAAAAAAAAAAAAAAAAAAAAAAAAAAAAAAAAAAAAAAAAAAAAAAAAAAAAAAAAAAAAAAAAAAAAAAAAAAAAAAAAAAAAAAAAAAAAAAAAAAAAAAAAAAAAAAAAAAAAAAAAAAAAAAAAAAAAAAAAAAAAAAAAAAAAAAAAAAAAAAAAAAAAAAAAAAAAAAAAAAAAAAAAAAAAAAAAAAAAAAAAAAAAAAAAAAAAAAAAAAAAAAAAAAAAAAAAAAAAAAAAAAAAAAAAAAAAAAAAAAAAAAAAAAAAAAAAAAAAAAAAAAAAAAAAAAAAAAAAAAAAAAAAAAAAAAAAAAAAAAAAAAAAAAAAAAAAAAAAAAAAAAAAAAAAAAAAAAAAAAAAAAAAAAAAAAAAAAAAAAAAAAAAAAAAAAAAAAAAAAAAAAAAAAAAAAAAAAAAAAAAAAAAAAAAAAAAAAAAAAAAAAAAAAAAAAAAAAAAAAAAAAAAAAAAAAAAAAAAAAAAAAAAAAAAAAAAAAAAAAAAAAAAAAAAAAAAAAAAAAAAAAAAAAAAAAAAAAAAAAAAAAAAAAAAAAAAAAAAAAAAAAAAAAAAAAAAAAAAAAAAAAAAAAAAAAAAAAAAAAAAAAAAAAAAAAAAAAAAAAAAAAAAAAAAAAAAAAAAAAAAAAAAAAAAAAAAAAAAAAAAAAAAAAAAAAAAAAAAAAAAAAAAAAAAAAAAAAAAAAAAAAAAAAAAAAAAAAAAAAAAAAAAAAAAAAAAAAAAAAAAAAAAAAAAAAAAAAAAAAAAAAAAAAAAAAAAAAAAAAAAAAAAAAAAAAAAAAAAAAAAAAAAAAAAAAAAAAAAAAAAAAAAAAAAAAAAAAAAAAAAAAAAAAAAAAAAAAAAAAAAAAAAAAAAAAAAAAAAAAAAAAAAAAAAAAAAAAAAAAAAAAAAAAAAAAAAAAAAAAAAAAAAAAAAAAAAAAAAAAAAAAAAAAAAAAAAAAAAAAAAAAAAAAAAAAAAAAAAAAAAAAAAAAAAAAAAAAAAAAAAAAAAAAAAAAAAAAAAAAAAAAAAAAAAAAAAAAAAAAAAAAAAAAAAAAAAAAAAAAAAAAAAAAAAAAAAAAAAAAAAAAAAAAAAAAAAAAAAAAAAAAAAAAAAAAAAAAAAAAAAAAAAAAAAAAAAAAAAAAAAAAAAAAAAAAAAAAAAAAAAAAAAAAAAAAAAAAAAAAAAAAAAAAAAAAAAAAAAAAAAAAAAAAAAAAAAAAAAAAAAAAAAAAAAAAAAAAAAAAAAAAAAAAAAAAAAAAAAAAAAAAAAAAAAAAAAAAAAAAAAAAAAAAAAAAAAAAAAAAAAAAAAAAAAAAAAAAAAAAAAAAAAAAAAAAAAAAAAAAAAAAAAAAAAAAAAAAAAAPZYQP1N/dw4vzTXSNqdCThrhwlg0M8Sqzh7fXmqRjquKWhoqX6gETOoIGSok9jpHNpcL4Q4mM2pyGDzDTp7FmxgohI=</c2pa:manifest></metadata>
<rect width="260" height="150" fill="none"/>
<path d="M 15.6,94.57 L 16.38,98.33 L 19.24,101.39 L 26.06,115.79 L 36.27,113.11 L 42.05,117.32 L 53.1,112.12 L 61.42,105.6 L 64.09,96.64 L 69.16,95.57 L 72.22,91.82 L 76.11,93.58 L 83.78,91.13 L 86.97,84.54 L 90.48,81.78 L 111.15,81.93 L 113.17,79.63 L 113.17,74.12 L 115.57,72.59 L 138.51,72.59 L 140.92,74.12 L 140.92,79.79 L 143.39,82.09 L 163.61,81.78 L 167.05,84.46 L 170.23,91.13 L 177.9,93.58 L 182.07,91.89 L 184.08,94.42 L 183.37,98.79 L 187.65,100.01 L 194.74,98.79 L 207.15,109.89 L 220.8,117.25 L 226.46,114.95 L 232.25,117.94 L 235.75,115.41 L 237.97,106.98 L 244.4,95.72 L 241.86,89.44 L 228.8,80.32 L 228.48,73.81 L 225.61,69.6 L 201.76,52.36 L 177.32,37.81 L 172.19,36.74 L 167.96,40.11 L 163.61,40.11 L 155.61,33.52 L 129.74,32.06 L 98.48,33.52 L 90.41,40.11 L 86.12,40.11 L 81.9,36.74 L 76.76,37.81 L 52.19,52.44 L 28.47,69.6 L 25.35,75.27 L 27.49,80.94 L 27.04,83.62 L 18.33,89.44 Z" fill="#2A2622" fill-opacity="0.45" stroke="#3C372F" stroke-width="1.1"/>
<path d="M 15.6,94.57 L 16.38,98.33 L 19.24,101.39 L 26.06,115.79 L 36.27,113.11 L 42.05,117.32 L 53.1,112.12 L 61.42,105.6 L 64.09,96.64 L 66.14,96.21 L 36.97,63.45 L 28.47,69.6 L 25.35,75.27 L 27.49,80.94 L 27.04,83.62 L 18.33,89.44 L 15.6,94.57 Z" fill="none" stroke="#3C372F" stroke-width="0.9"/>
<path d="M 66.14,96.21 L 69.16,95.57 L 72.22,91.82 L 76.11,93.58 L 83.78,91.13 L 84.37,89.92 L 84.37,38.71 L 81.9,36.74 L 76.76,37.81 L 52.19,52.44 L 36.97,63.45 L 66.14,96.21 Z" fill="none" stroke="#3C372F" stroke-width="0.9"/>
<path d="M 84.37,89.92 L 86.97,84.54 L 90.48,81.78 L 103.48,81.88 L 103.48,33.29 L 98.48,33.52 L 90.41,40.11 L 86.12,40.11 L 84.37,38.71 L 84.37,89.92 Z" fill="none" stroke="#3C372F" stroke-width="0.9"/>
<path d="M 103.48,81.88 L 111.15,81.93 L 113.17,79.63 L 113.17,74.12 L 115.57,72.59 L 126.68,72.59 L 126.68,32.2 L 103.48,33.29 L 103.48,81.88 Z" fill="none" stroke="#3C372F" stroke-width="0.9"/>
<path d="M 169.0,88.54 L 170.23,91.13 L 172.05,91.71 L 223.4,68.0 L 201.76,52.36 L 177.32,37.81 L 172.19,36.74 L 169.0,39.28 L 169.0,88.54 Z" fill="none" stroke="#3C372F" stroke-width="0.9"/>
<path d="M 172.05,91.71 L 177.9,93.58 L 182.07,91.89 L 184.08,94.42 L 183.37,98.79 L 187.65,100.01 L 194.74,98.79 L 205.95,108.82 L 242.82,91.8 L 241.86,89.44 L 228.8,80.32 L 228.48,73.81 L 225.61,69.6 L 223.4,68.0 L 172.05,91.71 Z" fill="none" stroke="#3C372F" stroke-width="0.9"/>
<path d="M 205.95,108.82 L 207.15,109.89 L 220.8,117.25 L 226.46,114.95 L 232.25,117.94 L 235.75,115.41 L 237.97,106.98 L 244.4,95.72 L 242.82,91.8 L 205.95,108.82 Z" fill="none" stroke="#3C372F" stroke-width="0.9"/>
<path d="M 126.68,72.59 L 138.51,72.59 L 140.92,74.12 L 140.92,79.79 L 143.39,82.09 L 163.61,81.78 L 167.05,84.46 L 169.0,88.54 L 169.0,39.28 L 167.96,40.11 L 163.61,40.11 L 155.61,33.52 L 129.74,32.06 L 126.68,32.2 L 126.68,72.59 Z" fill="#C67F4A" fill-opacity="0.88" stroke="#C67F4A" stroke-width="1.6" stroke-linejoin="round"/>
<path d="M 15.6,94.57 L 16.38,98.33 L 19.24,101.39 L 26.06,115.79 L 36.27,113.11 L 42.05,117.32 L 53.1,112.12 L 61.42,105.6 L 64.09,96.64 L 69.16,95.57 L 72.22,91.82 L 76.11,93.58 L 83.78,91.13 L 86.97,84.54 L 90.48,81.78 L 111.15,81.93 L 113.17,79.63 L 113.17,74.12 L 115.57,72.59 L 138.51,72.59 L 140.92,74.12 L 140.92,79.79 L 143.39,82.09 L 163.61,81.78 L 167.05,84.46 L 170.23,91.13 L 177.9,93.58 L 182.07,91.89 L 184.08,94.42 L 183.37,98.79 L 187.65,100.01 L 194.74,98.79 L 207.15,109.89 L 220.8,117.25 L 226.46,114.95 L 232.25,117.94 L 235.75,115.41 L 237.97,106.98 L 244.4,95.72 L 241.86,89.44 L 228.8,80.32 L 228.48,73.81 L 225.61,69.6 L 201.76,52.36 L 177.32,37.81 L 172.19,36.74 L 167.96,40.11 L 163.61,40.11 L 155.61,33.52 L 129.74,32.06 L 98.48,33.52 L 90.41,40.11 L 86.12,40.11 L 81.9,36.74 L 76.76,37.81 L 52.19,52.44 L 28.47,69.6 L 25.35,75.27 L 27.49,80.94 L 27.04,83.62 L 18.33,89.44 Z" fill="none" stroke="#EFE6D8" stroke-width="1.4" stroke-opacity="0.75" stroke-linejoin="round"/>
<circle cx="234" cy="128" r="11" fill="none" stroke="#3C372F" stroke-width="0.8"/>
<line x1="234" y1="128" x2="237.8" y2="117.7" stroke="#EFE6D8" stroke-width="1.3"/>
<text x="234" y="148" fill="#3C372F" font-family="monospace" font-size="7" text-anchor="middle">N</text>
<text x="10" y="138" fill="#3C372F" font-family="monospace" font-size="8" letter-spacing="1.2">TYPICAL FLOOR 6-18, 20-28, 30-32</text>
<text x="10" y="18" fill="#C67F4A" font-family="monospace" font-size="9" letter-spacing="1.4">F5</text>
</svg>